<svg xmlns="http://www.w3.org/2000/svg" viewBox="0 0 400 300" width="406" height="306" class="illustration styles_illustrationTablet__1DWOa"><g id="_574_ranking_outline" data-name="#574_ranking_outline"><path d="M107.94,181.41h6.13v5a4,4,0,0,1,.49,3.13c-.49,1.69-1.12,3.23-3.79,2.2S107.94,185.77,107.94,181.41Z" fill="#ffc9b0"></path><path d="M112.28,193a5.35,5.35,0,0,1-1.87-.39c-3.2-1.24-3.47-6.23-3.47-11.24a1,1,0,0,1,1-1h6.13a1,1,0,0,1,1,1v4.7a4.94,4.94,0,0,1,.45,3.68,4.36,4.36,0,0,1-1.94,3A2.79,2.79,0,0,1,112.28,193Zm-3.34-10.63c0,3.08.22,7.61,2.19,8.37a2.25,2.25,0,0,0,1.56.18c.44-.21.7-1,.91-1.73a3,3,0,0,0-.36-2.28,1.06,1.06,0,0,1-.17-.57v-4Z" fill="#093f68"></path><path d="M147.18,181.41h-6.13v5a4,4,0,0,0-.5,3.13c.5,1.69,1.13,3.23,3.79,2.2S147.18,185.77,147.18,181.41Z" fill="#ffc9b0"></path><path d="M142.84,193a2.86,2.86,0,0,1-1.31-.29,4.36,4.36,0,0,1-1.94-3,4.93,4.93,0,0,1,.46-3.68v-4.7a1,1,0,0,1,1-1h6.13a1,1,0,0,1,1,1c0,5-.27,10-3.48,11.24A5.35,5.35,0,0,1,142.84,193Zm-.79-10.63v4a1,1,0,0,1-.18.57,3,3,0,0,0-.36,2.28c.21.72.48,1.52.91,1.73a2.24,2.24,0,0,0,1.56-.18c2-.76,2.18-5.29,2.2-8.37Z" fill="#093f68"></path><path d="M121.05,137.56h13a13.11,13.11,0,0,1,13.11,13.11v30.74a0,0,0,0,1,0,0H107.94a0,0,0,0,1,0,0V150.67A13.11,13.11,0,0,1,121.05,137.56Z" fill="#fff"></path><path d="M147.18,182.41H107.94a1,1,0,0,1-1-1V150.67a14.13,14.13,0,0,1,14.11-14.11h13a14.13,14.13,0,0,1,14.11,14.11v30.74A1,1,0,0,1,147.18,182.41Zm-38.24-2h37.24V150.67a12.12,12.12,0,0,0-12.11-12.11h-13a12.12,12.12,0,0,0-12.11,12.11Z" fill="#093f68"></path><path d="M114.07,175.48a1,1,0,0,1-1-1V149.79a1,1,0,0,1,2,0v24.69A1,1,0,0,1,114.07,175.48Z" fill="#093f68"></path><path d="M141.05,175.38a1,1,0,0,1-1-1V149.79a1,1,0,0,1,2,0v24.59A1,1,0,0,1,141.05,175.38Z" fill="#093f68"></path><path d="M122.33,97.43a11.3,11.3,0,0,1,1.83-.32c2.84-.25,5.74-.6,8.45.43a15.85,15.85,0,0,1,10.08,13.25l.48,11.71-31.73,4.39c-.26-.67-2.39-2.75-2.42-3.44a9.75,9.75,0,0,0-.55-2.22,30.86,30.86,0,0,1-1.21-5.71,22.56,22.56,0,0,1,1-9,9.79,9.79,0,0,1,2.59-4.77c1.39-1.18,3.74-1.44,4.94,0A11.87,11.87,0,0,1,122.33,97.43Z" fill="#725858"></path><path d="M111.44,127.89a1,1,0,0,1-.93-.64,11,11,0,0,0-.88-1.13c-1-1.21-1.58-1.92-1.61-2.62a6.42,6.42,0,0,0-.35-1.48c0-.16-.11-.33-.16-.5a32.53,32.53,0,0,1-1.25-5.89,23.47,23.47,0,0,1,1.09-9.46,10.69,10.69,0,0,1,2.89-5.23,4.9,4.9,0,0,1,5.46-.69,12.9,12.9,0,0,1,6.38-3.79,12.36,12.36,0,0,1,2-.34l.5-.05c2.77-.25,5.63-.52,8.39.53a16.82,16.82,0,0,1,10.72,14.09s0,0,.49,11.77a1,1,0,0,1-.87,1l-31.72,4.39ZM110,123.32a11.86,11.86,0,0,0,1.16,1.52c.32.39.58.7.77,1l30.19-4.18c-.11-2.72-.43-10.65-.44-10.8h0a14.85,14.85,0,0,0-9.43-12.36c-2.34-.88-4.85-.65-7.5-.41l-.51,0a10.71,10.71,0,0,0-1.68.28h0a10.89,10.89,0,0,0-5.95,3.87,1,1,0,0,1-.76.39,1,1,0,0,1-.79-.35c-.8-.92-2.56-.67-3.53.16a9,9,0,0,0-2.28,4.3,21.31,21.31,0,0,0-1,8.65,30.23,30.23,0,0,0,1.18,5.54l.14.46A7.52,7.52,0,0,1,110,123.32Zm0,0Zm12.33-25.85h0Z" fill="#093f68"></path><path d="M125,135.61h5a0,0,0,0,1,0,0v2.86a2.11,2.11,0,0,1-2.11,2.11h-.75a2.11,2.11,0,0,1-2.11-2.11v-2.86A0,0,0,0,1,125,135.61Z" fill="#ffc9b0"></path><path d="M127.86,141.58h-.75a3.11,3.11,0,0,1-3.11-3.11v-2.86a1,1,0,0,1,1-1h5a1,1,0,0,1,1,1v2.86A3.11,3.11,0,0,1,127.86,141.58Zm-1.86-5v1.86a1.11,1.11,0,0,0,1.11,1.11h.75a1.11,1.11,0,0,0,1.11-1.11v-1.86Z" fill="#093f68"></path><ellipse cx="139.11" cy="121.45" rx="4.55" ry="4.16" transform="translate(-10.58 13.3) rotate(-5.28)" fill="#ffc9b0"></ellipse><path d="M139,126.62a5.66,5.66,0,0,1-3.45-1.15,5,5,0,0,1-2-3.51,5.38,5.38,0,0,1,5-5.65,5.68,5.68,0,0,1,4,1.12,4.92,4.92,0,0,1,.68,7.33,5.7,5.7,0,0,1-3.74,1.83A5.25,5.25,0,0,1,139,126.62Zm.17-8.33h-.37a3.37,3.37,0,0,0-3.24,3.48,3,3,0,0,0,1.2,2.1,3.84,3.84,0,0,0,5.06-.47,3,3,0,0,0,.8-2.28h0a3,3,0,0,0-1.21-2.1A3.69,3.69,0,0,0,139.19,118.29Z" fill="#093f68"></path><path d="M127.28,136.16h0A14.56,14.56,0,0,1,111.44,123l2.63-3.92s5.87-6.25,4.48-10.19c0,0,8.43,4.54,13.77,3.61,6.91-1.19,7.29-1.3,7.29-1.3l.84,9.12A14.57,14.57,0,0,1,127.28,136.16Z" fill="#ffc9b0"></path><path d="M125.92,137.23a15.59,15.59,0,0,1-15.48-14.14,1,1,0,0,1,.17-.65l2.63-3.92.1-.12c1.52-1.62,5.24-6.42,4.26-9.18a1,1,0,0,1,.3-1.09A1,1,0,0,1,119,108c.08,0,8.19,4.36,13.13,3.51,6.38-1.11,7.15-1.28,7.22-1.29a1,1,0,0,1,.82.16,1,1,0,0,1,.41.72l.84,9.12a15.55,15.55,0,0,1-14.06,16.93h0A14.41,14.41,0,0,1,125.92,137.23Zm-13.45-14a13.57,13.57,0,0,0,14.72,11.91h0a13.58,13.58,0,0,0,12.26-14.76l-.74-8c-1.24.23-3.39.61-6.22,1.1-4.17.72-9.93-1.59-12.74-2.9-.25,3.93-4.17,8.33-4.9,9.12Z" fill="#093f68"></path><rect x="114.05" y="174.05" width="10.6" height="48.65" fill="#093f68"></rect><path d="M124.65,223.7h-10.6a1,1,0,0,1-1-1V174.05a1,1,0,0,1,1-1h10.6a1,1,0,0,1,1,1V222.7A1,1,0,0,1,124.65,223.7Zm-9.6-2h8.6V175.05h-8.6Z" fill="#093f68"></path><rect x="131.87" y="174.05" width="9.19" height="48.65" fill="#093f68"></rect><path d="M141.07,223.7h-9.2a1,1,0,0,1-1-1V174.05a1,1,0,0,1,1-1h9.2a1,1,0,0,1,1,1V222.7A1,1,0,0,1,141.07,223.7Zm-8.2-2h7.2V175.05h-7.2Z" fill="#093f68"></path><rect x="114.56" y="173.96" width="26.5" height="7.51" fill="#093f68"></rect><path d="M141.07,182.47H114.56a1,1,0,0,1-1-1V174a1,1,0,0,1,1-1h26.51a1,1,0,0,1,1,1v7.51A1,1,0,0,1,141.07,182.47Zm-25.51-2h24.51V175H115.56Z" fill="#093f68"></path><polygon points="123.33 222.7 123.33 229.48 108.95 229.48 116.14 222.7 123.33 222.7" fill="#fff"></polygon><path d="M123.33,230.48H109a1,1,0,0,1-.69-1.73l7.18-6.78a1,1,0,0,1,.69-.27h7.19a1,1,0,0,1,1,1v6.78A1,1,0,0,1,123.33,230.48Zm-11.86-2h10.86V223.7h-5.79Z" fill="#093f68"></path><polygon points="132.45 222.7 132.45 229.48 146.82 229.48 139.63 222.7 132.45 222.7" fill="#fff"></polygon><path d="M146.82,230.48H132.45a1,1,0,0,1-1-1V222.7a1,1,0,0,1,1-1h7.18a1,1,0,0,1,.69.27l7.18,6.78a1,1,0,0,1-.68,1.73Zm-13.37-2H144.3l-5.07-4.78h-5.78Z" fill="#093f68"></path><rect x="125.4" y="141.77" width="4.69" height="3.69" rx="1.36" fill="#f56132"></rect><path d="M128.73,146.46h-2a2.37,2.37,0,0,1-2.36-2.37v-1a2.36,2.36,0,0,1,2.36-2.36h2a2.36,2.36,0,0,1,2.36,2.36v1A2.37,2.37,0,0,1,128.73,146.46Zm-2-3.69a.36.36,0,0,0-.36.36v1a.37.37,0,0,0,.36.37h2a.37.37,0,0,0,.36-.37v-1a.36.36,0,0,0-.36-.36Z" fill="#093f68"></path><polygon points="126.4 145.46 123.67 160.27 127.91 167.03 131.44 160.9 129.09 145.46 126.4 145.46" fill="#f56132"></polygon><path d="M127.91,168a1,1,0,0,1-.85-.47l-4.23-6.76a1,1,0,0,1-.14-.71l2.73-14.82a1,1,0,0,1,1-.81h2.69a1,1,0,0,1,1,.85l2.35,15.44a1.06,1.06,0,0,1-.12.65l-3.54,6.13a1,1,0,0,1-.84.5Zm-3.18-8,3.14,5,2.53-4.38-2.17-14.25h-1Z" fill="#093f68"></path><circle cx="125.4" cy="120.81" r="1.31" fill="#093f68"></circle><circle cx="137.1" cy="118.5" r="1.31" fill="#093f68"></circle><path d="M132.78,126h-.05a1,1,0,0,1,0-2h0a6.41,6.41,0,0,0,1.14-.11,13.63,13.63,0,0,0-1.31-2.1,1,1,0,0,1,.2-1.4,1,1,0,0,1,1.4.19c1.42,1.9,2,3.29,1.81,4.12a1.34,1.34,0,0,1-.74.87A7.07,7.07,0,0,1,132.78,126Zm1.29-1.68h0Z" fill="#093f68"></path><path d="M131.62,132.08l-.4,0c-1.58-.15-3-1.17-4.13-3a1,1,0,1,1,1.69-1.06,3.84,3.84,0,0,0,2.62,2.09A3.68,3.68,0,0,0,134,129a1,1,0,0,1,1.45,1.37A5.73,5.73,0,0,1,131.62,132.08Z" fill="#093f68"></path><path d="M115,128.73a4.86,4.86,0,1,1-.89-9.65" fill="#ffc9b0"></path><path d="M114.42,129.75a6,6,0,0,1-6.17-5.27,5.57,5.57,0,0,1,1.48-4.31,6.5,6.5,0,0,1,4.25-2.08,1,1,0,0,1,.18,2,4.49,4.49,0,0,0-3,1.43,3.63,3.63,0,0,0-1,2.79,4.09,4.09,0,0,0,4.63,3.43,1,1,0,1,1,.18,2Q114.74,129.75,114.42,129.75Z" fill="#093f68"></path><path d="M280.92,92.85l.8-.31c1.95-.73,3.75.19,5.55,1.09,4.57,2.28,7.57,7.47,9.18,12.12,1.92,5.52,2.92,11.33,4.75,16.87A21.46,21.46,0,0,1,299.6,139a17.45,17.45,0,0,1-5.54,6.53c-2.75,1.85-5.18,1.88-8.29,1.68-2.76-.18-5.63.79-8.47.74-5.88-.11-11.66-2.25-15.5-6.83a11,11,0,0,1-2.95-7.27,20.11,20.11,0,0,1,1.49-5.64c1.7-5,1.11-10.33,1.56-15.53.35-4.06.82-8.28,2.44-12.07,1.21-2.85,4.54-7.1,8.1-6.67,1.32.15,2.62.7,3.95.53a7.41,7.41,0,0,0,1.65-.48Z" fill="#725858"></path><path d="M277.51,148.9h-.23c-6.68-.12-12.45-2.67-16.25-7.19a12.17,12.17,0,0,1-3.18-8,16.2,16.2,0,0,1,1.19-4.91c.12-.34.24-.67.35-1,1.12-3.31,1.2-6.73,1.29-10.34,0-1.62.08-3.3.22-5,.35-4.1.84-8.44,2.52-12.37,1.31-3.08,5-7.79,9.14-7.28.52.06,1,.18,1.49.28a6.47,6.47,0,0,0,2.21.26,6.76,6.76,0,0,0,1.43-.43l3.68-1.39c2.33-.88,4.42.16,6.27,1.09,5.62,2.8,8.52,9.17,9.76,12.72,1,3,1.8,6,2.55,9,.66,2.61,1.34,5.32,2.2,7.91a22.58,22.58,0,0,1-1.66,17.1,18.33,18.33,0,0,1-5.87,6.9c-3.06,2.05-5.73,2.06-8.91,1.85a20.29,20.29,0,0,0-4.24.34A25.67,25.67,0,0,1,277.51,148.9Zm-5.57-54c-2.78,0-5.6,3.55-6.69,6.1-1.55,3.65-2,7.81-2.36,11.76-.13,1.59-.17,3.23-.21,4.82-.09,3.61-.17,7.34-1.39,10.94-.12.35-.24.69-.37,1a14.87,14.87,0,0,0-1.07,4.31,10.19,10.19,0,0,0,2.71,6.59c3.42,4.07,8.66,6.37,14.75,6.48a22.68,22.68,0,0,0,3.86-.37,22.09,22.09,0,0,1,4.67-.37c2.89.19,5.13.19,7.66-1.51a16.41,16.41,0,0,0,5.22-6.16,20.56,20.56,0,0,0,1.53-15.56c-.88-2.65-1.57-5.39-2.24-8-.74-2.92-1.5-5.94-2.5-8.81-.91-2.63-3.59-9-8.68-11.56-1.78-.88-3.25-1.61-4.75-1l-.8.3h0l-2.88,1.09a7.59,7.59,0,0,1-1.89.54,8.19,8.19,0,0,1-2.9-.28,10.82,10.82,0,0,0-1.29-.25A2.36,2.36,0,0,0,271.94,94.86Zm9-2h0Z" fill="#093f68"></path><path d="M259,171.83h5.54v4.49a3.65,3.65,0,0,1,.45,2.83c-.45,1.52-1,2.91-3.43,2S259,175.77,259,171.83Z" fill="#ffc9b0"></path><path d="M262.88,182.43a5,5,0,0,1-1.72-.36c-3-1.14-3.2-5.68-3.2-10.24a1,1,0,0,1,1-1h5.54a1,1,0,0,1,1,1v4.22a4.63,4.63,0,0,1,.41,3.38,4,4,0,0,1-1.81,2.73A2.73,2.73,0,0,1,262.88,182.43Zm-2.92-9.6c0,2.75.22,6.72,1.92,7.37a1.89,1.89,0,0,0,1.33.17c.34-.17.58-.82.78-1.51a2.56,2.56,0,0,0-.32-2,1.06,1.06,0,0,1-.17-.57v-3.49Z" fill="#093f68"></path><path d="M294.39,171.83h-5.54v4.49a3.62,3.62,0,0,0-.44,2.83c.44,1.52,1,2.91,3.42,2S294.39,175.77,294.39,171.83Z" fill="#ffc9b0"></path><path d="M290.47,182.43a2.73,2.73,0,0,1-1.22-.27,4,4,0,0,1-1.8-2.73,4.59,4.59,0,0,1,.4-3.38v-4.22a1,1,0,0,1,1-1h5.54a1,1,0,0,1,1,1c0,4.56-.25,9.1-3.2,10.24A5,5,0,0,1,290.47,182.43Zm-.62-9.6v3.49a1,1,0,0,1-.17.57,2.53,2.53,0,0,0-.31,2c.2.69.43,1.34.77,1.51a1.89,1.89,0,0,0,1.33-.17c1.7-.65,1.89-4.62,1.92-7.37Z" fill="#093f68"></path><path d="M270.8,132.24h11.75a11.84,11.84,0,0,1,11.84,11.84v27.75a0,0,0,0,1,0,0H259a0,0,0,0,1,0,0V144.08A11.84,11.84,0,0,1,270.8,132.24Z" fill="#fff"></path><path d="M294.39,172.83H259a1,1,0,0,1-1-1V144.08a12.85,12.85,0,0,1,12.84-12.84h11.75a12.85,12.85,0,0,1,12.84,12.84v27.75A1,1,0,0,1,294.39,172.83Zm-34.43-2h33.43V144.08a10.86,10.86,0,0,0-10.84-10.84H270.8A10.86,10.86,0,0,0,260,144.08Z" fill="#093f68"></path><rect x="274.44" y="135.08" width="4.84" height="25.58" fill="#ffbc0e"></rect><path d="M279.28,161.66h-4.84a1,1,0,0,1-1-1V135.08a1,1,0,0,1,1-1h4.84a1,1,0,0,1,1,1v25.58A1,1,0,0,1,279.28,161.66Zm-3.84-2h2.84V136.08h-2.84Z" fill="#093f68"></path><path d="M264.5,164.28a1,1,0,0,1-1-1v-20a1,1,0,1,1,2,0v20A1,1,0,0,1,264.5,164.28Z" fill="#093f68"></path><path d="M288.85,164.19a1,1,0,0,1-1-1v-19.9a1,1,0,1,1,2,0v19.9A1,1,0,0,1,288.85,164.19Z" fill="#093f68"></path><rect x="264.83" y="161.26" width="7.71" height="50.4" fill="#ffc9b0"></rect><path d="M272.55,212.65h-7.72a1,1,0,0,1-1-1V161.26a1,1,0,0,1,1-1h7.72a1,1,0,0,1,1,1v50.39A1,1,0,0,1,272.55,212.65Zm-6.72-2h5.72V162.26h-5.72Z" fill="#093f68"></path><rect x="281.46" y="161.26" width="7.69" height="50.4" fill="#ffc9b0"></rect><path d="M289.14,212.65h-7.68a1,1,0,0,1-1-1V161.26a1,1,0,0,1,1-1h7.68a1,1,0,0,1,1,1v50.39A1,1,0,0,1,289.14,212.65Zm-6.68-2h5.68V162.26h-5.68Z" fill="#093f68"></path><rect x="264.5" y="161.07" width="24.82" height="35.03" fill="#093f68"></rect><path d="M289.32,197.1H264.5a1,1,0,0,1-1-1v-35a1,1,0,0,1,1-1h24.82a1,1,0,0,1,1,1v35A1,1,0,0,1,289.32,197.1Zm-23.82-2h22.82v-33H265.5Z" fill="#093f68"></path><polygon points="272.55 211.65 272.55 218.23 258.6 218.23 265.57 211.65 272.55 211.65" fill="#fff"></polygon><path d="M272.55,219.23H258.6a1,1,0,0,1-.68-1.73l7-6.57a1,1,0,0,1,.68-.28h7a1,1,0,0,1,1,1v6.58A1,1,0,0,1,272.55,219.23Zm-11.43-2h10.43v-4.58H266Z" fill="#093f68"></path><polygon points="281.4 211.65 281.4 218.23 295.34 218.23 288.37 211.65 281.4 211.65" fill="#fff"></polygon><path d="M295.34,219.23H281.4a1,1,0,0,1-1-1v-6.58a1,1,0,0,1,1-1h7a1,1,0,0,1,.68.28l7,6.57a1,1,0,0,1-.69,1.73Zm-12.94-2h10.42L288,212.65H282.4Z" fill="#093f68"></path><path d="M276.52,131h.75a2.11,2.11,0,0,1,2.11,2.11V136a0,0,0,0,1,0,0h-5a0,0,0,0,1,0,0v-2.86A2.11,2.11,0,0,1,276.52,131Z" transform="translate(553.8 267.05) rotate(-180)" fill="#ffc9b0"></path><path d="M277.27,137h-.75a3.11,3.11,0,0,1-3.11-3.11V131a1,1,0,0,1,1-1h5a1,1,0,0,1,1,1v2.86A3.11,3.11,0,0,1,277.27,137Zm-1.86-5v1.86a1.11,1.11,0,0,0,1.11,1.11h.75a1.11,1.11,0,0,0,1.11-1.11V132Z" fill="#093f68"></path><ellipse cx="265.28" cy="116.88" rx="4.16" ry="4.55" transform="translate(124.5 370.29) rotate(-84.72)" fill="#ffc9b0"></ellipse><path d="M265.35,122a5.15,5.15,0,0,1-.55,0,5.37,5.37,0,0,1-5.05-5.65h0a5.56,5.56,0,0,1,11.05,1A5.33,5.33,0,0,1,265.35,122Zm-3.61-5.49a3.57,3.57,0,1,0,3.83-2.82,3.38,3.38,0,0,0-3.83,2.82Z" fill="#093f68"></path><path d="M277.1,131.59a14.56,14.56,0,0,0,15.84-13.16l-2.63-3.92a17.87,17.87,0,0,1-3.83-5.58c-.9-2.48-1.18-4.87-4.2-5.73a5.66,5.66,0,0,0-6,2.16,5.43,5.43,0,0,0-5.79-2.42,8,8,0,0,0-5.11,4c-1.62,2.91-1.3,5.58-1.39,8.69a16.14,16.14,0,0,0,1.3,7.58A14.71,14.71,0,0,0,277.1,131.59Z" fill="#ffc9b0"></path><path d="M278.45,132.65q-.72,0-1.44-.06h0a15.66,15.66,0,0,1-12.68-8.91,17.35,17.35,0,0,1-1.39-8c0-.53,0-1,0-1.55,0-2.55,0-5,1.5-7.6a8.85,8.85,0,0,1,5.77-4.53,6.62,6.62,0,0,1,6.06,1.81,6.76,6.76,0,0,1,6.26-1.54c3.07.88,3.8,3.1,4.49,5.26.12.36.24.73.38,1.1a16.53,16.53,0,0,0,3.62,5.24l.1.12,2.63,3.92a1,1,0,0,1,.17.65A15.59,15.59,0,0,1,278.45,132.65Zm-1.26-2.05a13.59,13.59,0,0,0,14.72-11.92l-2.38-3.55a17.84,17.84,0,0,1-4-5.86c-.15-.39-.27-.78-.4-1.17-.63-1.95-1.09-3.36-3.14-3.94a4.68,4.68,0,0,0-4.95,1.77,1,1,0,0,1-1.7-.09,4.45,4.45,0,0,0-4.71-1.92,7,7,0,0,0-4.44,3.55c-1.21,2.18-1.22,4.24-1.24,6.63,0,.52,0,1.05,0,1.6a15.43,15.43,0,0,0,1.2,7.13,13.85,13.85,0,0,0,11.05,7.77Z" fill="#093f68"></path><circle cx="280.29" cy="112.9" r="1.31" fill="#093f68"></circle><circle cx="268.59" cy="110.6" r="1.31" fill="#093f68"></circle><path d="M272.91,118.1a7.14,7.14,0,0,1-2.5-.44,1.28,1.28,0,0,1-.74-.86c-.22-.83.39-2.22,1.82-4.12a1,1,0,1,1,1.59,1.2,14.15,14.15,0,0,0-1.31,2.11,6.93,6.93,0,0,0,1.16.11h0a1,1,0,0,1,0,2Z" fill="#093f68"></path><path d="M274.07,124.18a5.78,5.78,0,0,1-3.8-1.74,1,1,0,1,1,1.45-1.37,3.68,3.68,0,0,0,2.57,1.09,3.79,3.79,0,0,0,2.62-2.09,1,1,0,1,1,1.69,1.07c-1.16,1.85-2.55,2.86-4.13,3Z" fill="#093f68"></path><path d="M289.42,124.15a4.86,4.86,0,1,0,.89-9.64" fill="#ffc9b0"></path><path d="M290,125.18c-.21,0-.43,0-.64,0a1,1,0,1,1,.19-2,4.54,4.54,0,0,0,3.16-.87,3.63,3.63,0,0,0,1.46-2.56,4.08,4.08,0,0,0-3.92-4.22,1,1,0,0,1,.19-2,6.08,6.08,0,0,1,5.72,6.4,5.57,5.57,0,0,1-2.25,4A6.41,6.41,0,0,1,290,125.18Z" fill="#093f68"></path><rect x="163.24" y="203.4" width="75.2" height="50.41" fill="#68e1fd"></rect><path d="M238.44,254.81h-75.2a1,1,0,0,1-1-1V203.4a1,1,0,0,1,1-1h75.2a1,1,0,0,1,1,1v50.41A1,1,0,0,1,238.44,254.81Zm-74.2-2h73.2V204.4h-73.2Z" fill="#093f68"></path><rect x="238.44" y="218.43" width="76.47" height="35.38" fill="#68e1fd"></rect><path d="M314.91,254.81H238.44a1,1,0,0,1-1-1V218.43a1,1,0,0,1,1-1h76.47a1,1,0,0,1,1,1v35.38A1,1,0,0,1,314.91,254.81Zm-75.47-2h74.47V219.43H239.44Z" fill="#093f68"></path><rect x="87.09" y="229.48" width="76.47" height="24.33" fill="#68e1fd"></rect><path d="M163.56,254.81H87.09a1,1,0,0,1-1-1V229.48a1,1,0,0,1,1-1h76.47a1,1,0,0,1,1,1v24.33A1,1,0,0,1,163.56,254.81Zm-75.47-2h74.47V230.48H88.09Z" fill="#093f68"></path><path d="M162.48,79.4c2.79,7.48,22,26.46,38.68,26.46,3.82,0,30.82,5.08,36.71,10.91,5.66,5.6-12.37,20.22-12.37,20.22l-6.21-5.31,9.45-9.81L214,117.77v30.06H187.41V119.07s-12.54-8.56-18-15.17c-3.41-4.11-10-11.61-13.23-20.12Z" fill="#fff"></path><path d="M214,148.83H187.41a1,1,0,0,1-1-1V119.6c-2.3-1.6-12.8-9-17.8-15.06l-.92-1.11c-3.56-4.24-9.51-11.35-12.48-19.31a1,1,0,0,1,.37-1.17l6.34-4.37a.94.94,0,0,1,.86-.13,1,1,0,0,1,.64.6c2.79,7.49,21.79,25.81,37.74,25.81,3.92,0,31.22,5.07,37.42,11.2a4.69,4.69,0,0,1,1.38,3.73c-.34,7-13.28,17.53-13.83,18a1,1,0,0,1-1.28,0l-6.21-5.3a1,1,0,0,1-.35-.72,1,1,0,0,1,.28-.74l8.28-8.61L215,119.09v28.74A1,1,0,0,1,214,148.83Zm-25.54-2H213V117.77a1,1,0,0,1,.39-.79,1,1,0,0,1,.88-.17l14.78,4.1a1,1,0,0,1,.7.69,1,1,0,0,1-.24,1l-8.71,9.05,4.76,4.08c3.92-3.3,12.22-11.24,12.46-16a2.78,2.78,0,0,0-.8-2.21c-5.59-5.53-32.44-10.62-36-10.62-16.27,0-34.83-17.34-39.1-25.95l-4.69,3.24c2.93,7.35,8.49,14,11.85,18l.93,1.12c5.34,6.43,17.7,14.9,17.82,15a1,1,0,0,1,.44.82Z" fill="#093f68"></path><path d="M201.67,62.77c-7.46-.38-15.17,1.84-18.2,9.43-1.85,4.63-1.91,9.78-1.37,14.74a7.67,7.67,0,0,0,.9,3.3c1.05,1.67,2.54,1.89,4.25,1.53a32.92,32.92,0,0,1,6.81-.25h15.15c2.33,0,7.27,1.53,8.63-.88S219,84,219.17,81.35A20.46,20.46,0,0,0,217.51,71C214.46,64.94,208,63.09,201.67,62.77Z" fill="#725858"></path><path d="M214.5,93a24.39,24.39,0,0,1-3.23-.28,19,19,0,0,0-2.06-.2H194.06l-1.69,0a22.11,22.11,0,0,0-4.91.24c-2.42.52-4.15-.13-5.31-2A8.7,8.7,0,0,1,181.1,87c-.67-6.24-.21-11.08,1.44-15.21,3.76-9.4,13.63-10.34,19.18-10.06,8.36.42,14,3.39,16.68,8.83,1.45,2.9,2,6.34,1.77,10.81,0,.46,0,1-.06,1.53-.09,2.7-.2,6.06-1.4,8.19C217.87,92.61,216.25,93,214.5,93Zm-23.8-2.53c.58,0,1.15,0,1.72,0l1.64,0h15.15a19.9,19.9,0,0,1,2.32.22c2,.26,4.75.62,5.44-.59,1-1.71,1.06-4.93,1.14-7.28,0-.56,0-1.1.06-1.57.22-4.11-.27-7.23-1.56-9.81-2.4-4.81-7.3-7.34-15-7.72-5-.25-13.92.55-17.22,8.8-1.53,3.82-1.94,8.35-1.31,14.26a6.8,6.8,0,0,0,.75,2.87c.71,1.12,1.6,1.43,3.2,1.09A17.36,17.36,0,0,1,190.7,90.47Z" fill="#093f68"></path><path d="M200.14,104h.81a2.29,2.29,0,0,1,2.29,2.29v3.1a0,0,0,0,1,0,0h-5.39a0,0,0,0,1,0,0v-3.1A2.29,2.29,0,0,1,200.14,104Z" transform="translate(401.08 213.37) rotate(-180)" fill="#ffc9b0"></path><path d="M201,110.38h-.82a3.29,3.29,0,0,1-3.28-3.29V104a1,1,0,0,1,1-1h5.39a1,1,0,0,1,1,1v3.1A3.3,3.3,0,0,1,201,110.38Zm-2.1-5.39v2.1a1.28,1.28,0,0,0,1.28,1.29H201a1.29,1.29,0,0,0,1.29-1.29V105Z" fill="#093f68"></path><ellipse cx="215.05" cy="89.99" rx="4.93" ry="4.51" fill="#ffc9b0"></ellipse><path d="M215.05,95.5A5.52,5.52,0,1,1,221,90,5.74,5.74,0,0,1,215.05,95.5Zm0-9A3.53,3.53,0,1,0,219,90,3.74,3.74,0,0,0,215.05,86.48Z" fill="#093f68"></path><ellipse cx="186.31" cy="89.99" rx="4.93" ry="4.51" fill="#ffc9b0"></ellipse><path d="M186.31,95.5A5.52,5.52,0,1,1,192.24,90,5.74,5.74,0,0,1,186.31,95.5Zm0-9A3.53,3.53,0,1,0,190.24,90,3.75,3.75,0,0,0,186.31,86.48Z" fill="#093f68"></path><path d="M200.54,104.69a15.78,15.78,0,0,0,15.79-15.78,76.06,76.06,0,0,0-.26-8.26,10.19,10.19,0,0,0-.43-2.33c-1.35-3.87-5.9-2.55-8.41-.76C205.28,79,203.39,80.71,201,81a7.49,7.49,0,0,1-4.85-1.33c-2.73-1.77-4.49-6.63-8.24-3.8s-3.18,8.83-3.18,13A15.78,15.78,0,0,0,200.54,104.69Z" fill="#ffc9b0"></path><path d="M200.54,105.69a16.8,16.8,0,0,1-16.79-16.78c0-.53,0-1.09,0-1.66-.08-4.16-.19-9.33,3.59-12.18,3.38-2.54,5.67,0,7.35,1.83a11.45,11.45,0,0,0,2.05,1.93A6.38,6.38,0,0,0,200.9,80c1.67-.2,3.12-1.29,4.65-2.44.37-.28.73-.55,1.1-.81,1.77-1.26,4.68-2.46,7.06-1.7A4.46,4.46,0,0,1,216.59,78a11.21,11.21,0,0,1,.47,2.56,67.84,67.84,0,0,1,.27,7.5v.86A16.8,16.8,0,0,1,200.54,105.69ZM190.1,76a2.65,2.65,0,0,0-1.57.67c-3,2.23-2.88,6.64-2.8,10.54,0,.58,0,1.15,0,1.7a14.79,14.79,0,0,0,29.58,0V88a68.48,68.48,0,0,0-.25-7.28,10.23,10.23,0,0,0-.38-2.11,2.5,2.5,0,0,0-1.59-1.7c-1.57-.5-3.85.39-5.3,1.43l-1.06.78c-1.67,1.26-3.41,2.56-5.61,2.83a8.43,8.43,0,0,1-5.51-1.48,12.75,12.75,0,0,1-2.44-2.27C191.88,76.8,191,76,190.1,76Z" fill="#093f68"></path><path d="M200.62,92.52a5.34,5.34,0,0,1-1.32-.14,1.33,1.33,0,0,1-.9-.75c-.38-.85,0-2.45,1.26-4.77a1,1,0,0,1,1.34-.43,1,1,0,0,1,.43,1.35,14.25,14.25,0,0,0-1.12,2.74,8,8,0,0,0,1.48-.09,1,1,0,0,1,1.16.81,1,1,0,0,1-.81,1.16A9.81,9.81,0,0,1,200.62,92.52Zm-.36-1.61h0Z" fill="#093f68"></path><polygon points="213.88 195.34 225.5 195.34 213.95 138.5 202.33 138.5 213.88 195.34" fill="#093f68"></polygon><path d="M225.5,196.33H213.88a1,1,0,0,1-1-.8L201.35,138.7a1,1,0,0,1,.2-.83,1,1,0,0,1,.78-.37H214a1,1,0,0,1,1,.8l11.55,56.84a1,1,0,0,1-.2.83A1,1,0,0,1,225.5,196.33Zm-10.8-2h9.58L213.13,139.5h-9.58Z" fill="#093f68"></path><polygon points="188.38 195.34 197.41 195.34 197.85 138.5 187.41 138.5 188.38 195.34" fill="#093f68"></polygon><path d="M197.4,196.33h-9a1,1,0,0,1-1-1l-1-56.83a1,1,0,0,1,1-1h10.44a1,1,0,0,1,.71.3,1,1,0,0,1,.29.71l-.45,56.83A1,1,0,0,1,197.4,196.33Zm-8-2h7l.43-54.83h-8.41Z" fill="#093f68"></path><rect x="187.41" y="138.41" width="26.03" height="10.6" transform="translate(400.86 287.43) rotate(-180)" fill="#093f68"></rect><path d="M213.45,150h-26a1,1,0,0,1-1-1V138.41a1,1,0,0,1,1-1h26a1,1,0,0,1,1,1V149A1,1,0,0,1,213.45,150Zm-25-2h24v-8.61h-24Z" fill="#093f68"></path><polygon points="213.88 195.34 215.43 202.99 233.07 202.99 223.45 195.34 213.88 195.34" fill="#fff"></polygon><path d="M233.07,204H215.43a1,1,0,0,1-1-.8l-1.55-7.66a1,1,0,0,1,1-1.2h9.57a1,1,0,0,1,.62.22l9.63,7.66a1,1,0,0,1-.63,1.78Zm-16.82-2h14l-7.11-5.66h-8Z" fill="#093f68"></path><polygon points="196.84 195.34 196.84 202.99 180.66 202.99 189.79 195.34 196.84 195.34" fill="#fff"></polygon><path d="M196.84,204H180.66a1,1,0,0,1-.64-1.76l9.12-7.66a1,1,0,0,1,.65-.24h7.05a1,1,0,0,1,1,1V203A1,1,0,0,1,196.84,204Zm-13.43-2h12.43v-5.66h-5.69Z" fill="#093f68"></path><line x1="213.95" y1="124.48" x2="213.95" y2="114.73" fill="#ffc9b0"></line><path d="M214,125.48a1,1,0,0,1-1-1v-9.75a1,1,0,0,1,2,0v9.75A1,1,0,0,1,214,125.48Z" fill="#093f68"></path><line x1="187.41" y1="119.07" x2="187.41" y2="112.68" fill="#ffc9b0"></line><path d="M187.41,120.07a1,1,0,0,1-1-1v-6.39a1,1,0,0,1,2,0v6.39A1,1,0,0,1,187.41,120.07Z" fill="#093f68"></path><path d="M201.24,99.37a13.48,13.48,0,0,1-7.91-3,1,1,0,0,1-.22-1.4,1,1,0,0,1,1.4-.22c7.67,5.57,12.1.4,12.28.17a1,1,0,0,1,1.41-.13,1,1,0,0,1,.14,1.4A9.7,9.7,0,0,1,201.24,99.37Z" fill="#093f68"></path><path d="M209.71,87.14a1,1,0,0,1-1-1,1.36,1.36,0,0,0-2.72,0,1,1,0,0,1-2,0,3.36,3.36,0,0,1,6.72,0A1,1,0,0,1,209.71,87.14Z" fill="#093f68"></path><path d="M196.28,87.14a1,1,0,0,1-1-1,1.36,1.36,0,0,0-2.72,0,1,1,0,0,1-2,0,3.36,3.36,0,0,1,6.72,0A1,1,0,0,1,196.28,87.14Z" fill="#093f68"></path><path d="M219.29,131.68s-4.56,2.79-4.95,4.34.74,8.75,1.47,9.16,6.3,2.13,6.63,0-2.29-2.7-2.29-2.7,5.15-1.32,5.35-5.49Z" fill="#ffc9b0"></path><path d="M220.44,147.22a14.45,14.45,0,0,1-5.11-1.16c-1.48-.82-2.31-8.88-2-10.28.46-1.81,4.25-4.25,5.4-4.95a1,1,0,0,1,1.17.09l6.21,5.31a1,1,0,0,1,.35.81,6.78,6.78,0,0,1-4,5.57,3,3,0,0,1,.94,2.72,2.06,2.06,0,0,1-1.17,1.55A4.14,4.14,0,0,1,220.44,147.22Zm-4-2.83c1.65.8,4.69,1,5,.65.18-1.16-1.35-1.54-1.52-1.58a1,1,0,0,1,0-2s4-1.09,4.55-4.1l-5.25-4.49c-2,1.3-3.75,2.78-3.89,3.34C215,137.5,215.92,143.27,216.46,144.39Zm0,.1h0Z" fill="#093f68"></path><rect x="198.33" y="110.16" width="4.23" height="3.33" rx="1.23" transform="translate(400.88 223.64) rotate(-180)" fill="#70cc40"></rect><path d="M201.33,114.48h-1.77a2.23,2.23,0,0,1-2.23-2.22v-.87a2.23,2.23,0,0,1,2.23-2.23h1.77a2.22,2.22,0,0,1,2.22,2.23v.87A2.22,2.22,0,0,1,201.33,114.48Zm-1.77-3.32a.23.23,0,0,0-.23.23v.87a.22.22,0,0,0,.23.22h1.77a.22.22,0,0,0,.22-.22v-.87a.22.22,0,0,0-.22-.23Z" fill="#093f68"></path><polygon points="201.65 113.48 204.11 126.84 200.29 132.93 197.11 127.41 199.23 113.48 201.65 113.48" fill="#70cc40"></polygon><path d="M200.29,133.93h0a1,1,0,0,1-.85-.5l-3.19-5.52a1.06,1.06,0,0,1-.12-.65l2.12-13.93a1,1,0,0,1,1-.85h2.42a1,1,0,0,1,1,.82l2.45,13.36a1,1,0,0,1-.13.71l-3.82,6.09A1,1,0,0,1,200.29,133.93Zm-2.14-6.72,2.18,3.78,2.73-4.35-2.24-12.16h-.73Z" fill="#093f68"></path><path d="M162.48,79.4l-1.26-3.87s1-3,0-3.94A11.13,11.13,0,0,0,158.68,70s-2.11-8.17-2.53-8.66-1.62-.77-2,1.06.84,7.8.84,7.8A8.87,8.87,0,0,0,151,73.42c-1.48,2.32,5.14,10.36,5.14,10.36Z" fill="#ffc9b0"></path><path d="M156.15,84.78a1,1,0,0,1-.77-.37c-2.13-2.58-6.9-8.88-5.21-11.53a9.71,9.71,0,0,1,3.65-3.28c-.35-1.76-1.06-5.83-.69-7.46s1.25-2,1.75-2.14a2.07,2.07,0,0,1,2,.66c.15.18.56.65,2.63,8.61a11.78,11.78,0,0,1,2.36,1.58c1.21,1.13.68,3.57.36,4.67l1.17,3.57a1,1,0,0,1-.38,1.13l-6.33,4.38A1,1,0,0,1,156.15,84.78ZM155.37,62c-.07,0-.2.22-.29.62-.27,1.18.38,5.15.85,7.37a1,1,0,0,1-.63,1.15A7.9,7.9,0,0,0,151.85,74c-.53.84,1.57,4.76,4.5,8.47l5-3.42-1-3.16a1,1,0,0,1,0-.62,4.93,4.93,0,0,0,.27-2.9,10.49,10.49,0,0,0-2.26-1.44,1,1,0,0,1-.56-.66C156.81,66.72,155.72,62.82,155.37,62Z" fill="#093f68"></path><path d="M155,70.17s-3.24,5.36-1.27,5.36,3.45-2.39,3.45-2.39-1.33,2.47,0,4.22" fill="#ffc9b0"></path><path d="M157.13,78.36a1,1,0,0,1-.79-.39,3.8,3.8,0,0,1-.77-2,4,4,0,0,1-1.89.51,1.54,1.54,0,0,1-1.4-.78c-.75-1.32.58-4,1.82-6.1a1,1,0,0,1,1.37-.33,1,1,0,0,1,.34,1.37,15.38,15.38,0,0,0-1.73,3.79,4.62,4.62,0,0,0,2.2-1.87,1,1,0,0,1,1.73,1s-1,1.94-.08,3.15a1,1,0,0,1-.19,1.4A1,1,0,0,1,157.13,78.36Zm-3.08-3.51h0Z" fill="#093f68"></path></g></svg>